<svg fill="none" height="24" viewBox="0 0 24 24" width="24" xmlns="http://www.w3.org/2000/svg"><g fill="#0f1111"><path d="m9.71019 6.71 1.29001-1.3v8.59c0 .2652.1053.5196.2929.7071.1875.1875.4419.2929.7071.2929s.5196-.1054.7071-.2929.2929-.4419.2929-.7071v-8.59l1.29 1.3c.0929.09373.2035.16812.3254.21889s.2526.07691.3846.07691.2627-.02614.3846-.07691c.1218-.05077.2324-.12516.3254-.21889.0937-.09296.1681-.20356.2189-.32542.0507-.12186.0769-.25257.0769-.38458s-.0262-.26272-.0769-.38458c-.0508-.12186-.1252-.23246-.2189-.32542l-3-3c-.093-.09373-.2036-.16812-.3254-.21889-.1219-.05077-.2526-.07691-.3846-.07691s-.2627.02614-.3846.07691-.2325.12516-.3254.21889l-3.00001 3c-.18831.1883-.2941.4437-.2941.71s.10579.5217.2941.71c.1883.1883.44369.29409.71.29409.2663 0 .52169-.10579.71-.29409z"/><path d="m18 9h-3v2h3v9h-12v-9h3v-2h-3c-.53043 0-1.03914.21071-1.41421.58579-.37508.37507-.58579.88381-.58579 1.41421v9c0 .5304.21071 1.0391.58579 1.4142.37507.3751.88378.5858 1.41421.5858h12c.5304 0 1.0391-.2107 1.4142-.5858s.5858-.8838.5858-1.4142v-9c0-.5304-.2107-1.03914-.5858-1.41421-.3751-.37508-.8838-.58579-1.4142-.58579z"/></g></svg>