<svg fill="none" height="24" viewBox="0 0 24 24" width="24" xmlns="http://www.w3.org/2000/svg"><g fill="#0f1111"><path d="m7 19.87c-.01354.5467.18873 1.0767.56304 1.4753.3743.3986.89053.6338 1.43696.6547h6c.5464-.0209 1.0627-.2561 1.437-.6547s.5765-.9286.563-1.4753l1-13.87h-12zm8.85-11.87-.85 11.72v.15c.0162.0418.0162.0882 0 .13h-6c-.01619-.0418-.01619-.0882 0-.13v-.15l-.85-11.72z"/><path d="m18 3h-4c0-.26522-.1054-.51957-.2929-.70711-.1875-.18753-.4419-.29289-.7071-.29289h-2c-.2652 0-.5196.10536-.7071.29289-.1875.18754-.2929.44189-.2929.70711h-4c-.26522 0-.51957.10536-.70711.29289-.18753.18754-.29289.44189-.29289.70711s.10536.51957.29289.70711c.18754.18753.44189.29289.70711.29289h12c.2652 0 .5196-.10536.7071-.29289.1875-.18754.2929-.44189.2929-.70711s-.1054-.51957-.2929-.70711c-.1875-.18753-.4419-.29289-.7071-.29289z"/></g></svg>