<?xml version="1.0" encoding="utf-8"?>
<!-- Generator: Adobe Illustrator 22.0.1, SVG Export Plug-In . SVG Version: 6.00 Build 0)  -->
<svg version="1.1" id="ICONS" xmlns="http://www.w3.org/2000/svg" xmlns:xlink="http://www.w3.org/1999/xlink" x="0px" y="0px"
	 viewBox="0 0 24 24" style="enable-background:new 0 0 24 24;" xml:space="preserve">
<style type="text/css">
	.st0{fill:#373E3E;}
	.st1{fill:#FFA724;}
	.st2{clip-path:url(#SVGID_2_);}
	.st3{clip-path:url(#SVGID_4_);}
	.st4{fill:#FF5252;}
	.st5{fill:#36C2B4;}
	.st6{clip-path:url(#SVGID_6_);}
	.st7{clip-path:url(#SVGID_8_);}
	.st8{clip-path:url(#SVGID_10_);}
	.st9{clip-path:url(#SVGID_12_);}
	.st10{fill:#AAB7B8;}
	.st11{fill:#EAEDED;}
</style>
<path class="st0" d="M18,9c2.2,0,4-1.8,4-4s-1.8-4-4-4s-4,1.8-4,4c0,0.4,0.1,0.7,0.2,1.1L8.8,9.2C8.1,8.5,7.1,8,6,8
	c-2.2,0-4,1.8-4,4s1.8,4,4,4c1.1,0,2.1-0.5,2.8-1.2l5.3,3.1C14.1,18.3,14,18.6,14,19c0,2.2,1.8,4,4,4s4-1.8,4-4s-1.8-4-4-4
	c-1.1,0-2.1,0.5-2.8,1.2l-5.3-3.1C9.9,12.7,10,12.4,10,12c0-0.4-0.1-0.7-0.2-1.1l5.3-3.1C15.9,8.5,16.9,9,18,9z M18,3
	c1.1,0,2,0.9,2,2s-0.9,2-2,2s-2-0.9-2-2S16.9,3,18,3z M6,14c-1.1,0-2-0.9-2-2s0.9-2,2-2s2,0.9,2,2S7.1,14,6,14z M18,17
	c1.1,0,2,0.9,2,2s-0.9,2-2,2s-2-0.9-2-2S16.9,17,18,17z"/>
</svg>
